# xmcd
#
# Track frame offsets:
# 150
# 41834
# 109714
# 150715
# 212654
# 336778
# 347667
#
# Disc length: 4786 seconds
#
#
# Revision: 1
# Processed by: cddbd v1.5.2PL0 Copyright (c) Steve Scherf et al.
# Submitted via: FreeRIP 2.52 
#
DISCID=6012b007
DTITLE=Santa Geração - Encontro de Avivamento
DYEAR=2005
DGENRE=Gospel
TTITLE0=Espontâneo
TTITLE1=Eu te amo Jesus
TTITLE2=Palavra Espontânea
TTITLE3=Jesus Lindo
TTITLE4=Palavra
TTITLE5=Eu quero ouvir
TTITLE6=07
EXTD=Pr. Antonio Cirilo
EXTT0=
EXTT1=
EXTT2=
EXTT3=
EXTT4=
EXTT5=
EXTT6=
PLAYORDER=
